<svg width="261" height="121" viewBox="0 0 261 121" fill="none" xmlns="http://www.w3.org/2000/svg">
<path d="M33.504 96.152C28.256 96.152 23.424 94.936 19.008 92.504C14.592 90.072 11.04 86.488 8.352 81.752C5.728 76.952 4.416 71.064 4.416 64.088C4.416 57.176 5.76 51.288 8.448 46.424C11.2 41.496 14.816 37.752 19.296 35.192C23.84 32.568 28.736 31.256 33.984 31.256C38.016 31.256 41.632 32.088 44.832 33.752C48.032 35.352 50.688 37.24 52.8 39.416L45.312 48.44C43.712 46.968 42.016 45.784 40.224 44.888C38.496 43.928 36.512 43.448 34.272 43.448C31.456 43.448 28.864 44.248 26.496 45.848C24.192 47.448 22.336 49.752 20.928 52.76C19.584 55.768 18.912 59.384 18.912 63.608C18.912 70.008 20.288 75 23.04 78.584C25.792 82.168 29.472 83.96 34.08 83.96C36.64 83.96 38.912 83.384 40.896 82.232C42.944 81.08 44.736 79.704 46.272 78.104L53.76 86.936C48.512 93.08 41.76 96.152 33.504 96.152ZM85.1445 96.152C79.5125 96.152 74.5525 94.84 70.2645 92.216C66.0405 89.592 62.7125 85.848 60.2805 80.984C57.9125 76.056 56.7285 70.2 56.7285 63.416C56.7285 56.568 57.9125 50.776 60.2805 46.04C62.7125 41.24 66.0405 37.592 70.2645 35.096C74.5525 32.536 79.5125 31.256 85.1445 31.256C90.7765 31.256 95.7045 32.536 99.9285 35.096C104.217 37.592 107.545 41.24 109.913 46.04C112.345 50.84 113.561 56.632 113.561 63.416C113.561 70.2 112.345 76.056 109.913 80.984C107.545 85.848 104.217 89.592 99.9285 92.216C95.7045 94.84 90.7765 96.152 85.1445 96.152ZM85.1445 83.96C89.4325 83.96 92.8245 82.104 95.3205 78.392C97.8165 74.68 99.0645 69.688 99.0645 63.416C99.0645 57.144 97.8165 52.248 95.3205 48.728C92.8245 45.208 89.4325 43.448 85.1445 43.448C80.8565 43.448 77.4645 45.208 74.9685 48.728C72.4725 52.248 71.2245 57.144 71.2245 63.416C71.2245 69.688 72.4725 74.68 74.9685 78.392C77.4645 82.104 80.8565 83.96 85.1445 83.96ZM125.33 95V32.408H139.442V95H125.33ZM154.205 95V32.408H168.701L185.021 63.512L191.165 77.336H191.549C191.293 74.008 190.941 70.296 190.493 66.2C190.045 62.104 189.821 58.2 189.821 54.488V32.408H203.26V95H188.765L172.445 63.8L166.301 50.168H165.917C166.237 53.624 166.589 57.336 166.973 61.304C167.421 65.272 167.645 69.112 167.645 72.824V95H154.205Z" fill="black"/>
<path d="M231 55.7C240.389 55.7 248 49.6111 248 42.1C248 34.5889 240.389 28.5 231 28.5C221.611 28.5 214 34.5889 214 42.1C214 49.6111 221.611 55.7 231 55.7Z" fill="black"/>
<path fill-rule="evenodd" clip-rule="evenodd" d="M214.236 93.6808C214.081 91.8335 214 89.9357 214 88C214 69.2223 221.611 54 231 54C240.389 54 248 69.2223 248 88C248 89.9357 247.919 91.8335 247.764 93.6808C242.513 95.5074 236.873 96.5 231 96.5C225.127 96.5 219.487 95.5074 214.236 93.6808ZM225.241 30.2814C225.241 30.2814 221.917 22.6363 218.2 20C218.2 20 214.2 30.4985 216.319 39.2074" fill="black"/>
<path fill-rule="evenodd" clip-rule="evenodd" d="M236.101 30.2814C236.101 30.2814 239.425 22.6363 243.142 20C243.142 20 247.142 30.4985 245.023 39.2074" fill="black"/>
<rect x="245.147" y="89.0529" width="6.61619" height="5.31493" transform="rotate(-29.3049 245.147 89.0529)" fill="black"/>
<path d="M251.947 90.6514C250.391 90.2345 249.468 88.6352 249.885 87.0792L251.186 82.2219C251.544 80.8883 252.915 80.0968 254.248 80.4542V80.4542C255.582 80.8115 256.373 82.1824 256.016 83.516L254.499 89.1783C254.201 90.2897 253.059 90.9492 251.947 90.6514V90.6514Z" fill="black"/>
<path d="M251.672 82.7024C251.453 81.6435 252.134 80.6075 253.193 80.3884L257.621 79.4721C258.881 79.2114 260.114 80.0216 260.375 81.2819V81.2819C260.636 82.5422 259.826 83.7752 258.565 84.0359L253.199 85.1463C252.658 85.2582 252.129 84.9105 252.017 84.3696L251.672 82.7024Z" fill="black"/>
</svg>
